<?xml version="1.0" encoding="UTF-8" standalone="no"?>
<!-- Uploaded to: SVG Repo, www.svgrepo.com, Generator: SVG Repo Mixer Tools -->

<svg
   fill="#000000"
   width="800px"
   height="800px"
   viewBox="-5.5 0 32 32"
   version="1.1"
   id="svg6"
   sodipodi:docname="facebook-svgrepo-com.svg"
   inkscape:version="1.2.2 (b0a8486541, 2022-12-01)"
   xmlns:inkscape="http://www.inkscape.org/namespaces/inkscape"
   xmlns:sodipodi="http://sodipodi.sourceforge.net/DTD/sodipodi-0.dtd"
   xmlns="http://www.w3.org/2000/svg"
   xmlns:svg="http://www.w3.org/2000/svg">
  <defs
     id="defs10" />
  <sodipodi:namedview
     id="namedview8"
     pagecolor="#ffffff"
     bordercolor="#000000"
     borderopacity="0.25"
     inkscape:showpageshadow="2"
     inkscape:pageopacity="0.0"
     inkscape:pagecheckerboard="0"
     inkscape:deskcolor="#d1d1d1"
     showgrid="false"
     inkscape:zoom="0.490625"
     inkscape:cx="46.878981"
     inkscape:cy="447.38853"
     inkscape:window-width="1862"
     inkscape:window-height="1011"
     inkscape:window-x="0"
     inkscape:window-y="0"
     inkscape:window-maximized="1"
     inkscape:current-layer="svg6" />
  <title
     id="title2">facebook</title>
  <path
     d="M -3.2191826,0.51290441 H 24.219183 c 0.930088,0 1.767912,0.83782399 1.767912,1.76791289 V 29.719184 c 0,0.930088 -0.837824,1.767912 -1.767912,1.767912 H -3.2191826 c -0.9300889,0 -1.7679129,-0.837824 -1.7679129,-1.767912 V 2.2808173 c 0,-0.9300889 0.837824,-1.76791289 1.7679129,-1.76791289 z M 17.009133,17.904823 h 4.278409 l 0.186017,-4.092392 h -4.464426 v -3.022416 c 0,-1.1622401 0.232152,-1.8140458 1.720293,-1.8140458 h 2.604248 l 0.09375,-3.8141087 c 0,0 -1.16224,-0.1860177 -2.836399,-0.1860177 -4.09239,0 -5.906436,2.5581161 -5.906436,5.3022512 v 3.534337 H 9.6621735 v 4.092392 h 3.0224175 v 11.347084 h 4.324541 z"
     id="path4"
     style="stroke-width:1.48814;fill:#ffffff" />
</svg>
