<?xml version="1.0" encoding="UTF-8" standalone="no"?>
<!-- Created with Inkscape (http://www.inkscape.org/) -->

<svg
   width="300"
   height="300"
   viewBox="0 0 79.374998 79.374999"
   version="1.1"
   id="svg1"
   inkscape:version="1.3 (0e150ed6c4, 2023-07-21)"
   sodipodi:docname="icon logo.svg"
   xmlns:inkscape="http://www.inkscape.org/namespaces/inkscape"
   xmlns:sodipodi="http://sodipodi.sourceforge.net/DTD/sodipodi-0.dtd"
   xmlns="http://www.w3.org/2000/svg"
   xmlns:svg="http://www.w3.org/2000/svg">
  <sodipodi:namedview
     id="namedview1"
     pagecolor="#505050"
     bordercolor="#eeeeee"
     borderopacity="1"
     inkscape:showpageshadow="0"
     inkscape:pageopacity="0"
     inkscape:pagecheckerboard="0"
     inkscape:deskcolor="#505050"
     inkscape:document-units="mm"
     inkscape:zoom="1.4022026"
     inkscape:cx="190.77129"
     inkscape:cy="60.975498"
     inkscape:window-width="1920"
     inkscape:window-height="993"
     inkscape:window-x="0"
     inkscape:window-y="0"
     inkscape:window-maximized="1"
     inkscape:current-layer="layer1" />
  <defs
     id="defs1" />
  <g
     inkscape:label="Camada 1"
     inkscape:groupmode="layer"
     id="layer1">
    <g
       id="g32"
       transform="matrix(5.296776,0,0,5.296776,-1345.9373,-572.36478)">
      <g
         id="g27">
        <path
           id="path15"
           style="opacity:1;fill:#e61c21;fill-opacity:1;stroke-width:0.268904"
           d="m 256.81362,110.29198 c -1.08054,-4e-5 -1.95651,0.87593 -1.95647,1.95647 0.002,0.12928 0.0163,0.25806 0.0434,0.38447 l -0.004,0.005 0.0233,0.0837 c 0.0104,0.0431 0.0223,0.0859 0.0356,0.12816 l 1.53014,5.50044 c 1.2e-4,1.1387 0.92319,2.06177 2.06189,2.06189 0.86564,-1.5e-4 1.63903,-0.54093 1.93632,-1.35392 4.1e-4,-7.6e-4 0.001,-10e-4 0.002,-0.002 0.2671,-0.50315 0.78172,-0.55297 0.78172,-0.55297 0,0 1.12998,-0.12916 1.39023,-0.12916 0.26024,0 0.41754,0.34003 0.41754,0.34003 l 0.005,-5.1e-4 c 0.2972,0.79032 1.05218,1.31448 1.89653,1.31671 0.93861,-0.002 1.7535,-0.64716 1.97145,-1.56011 l 0.005,-5.2e-4 c 0,0 0.87338,-2.5029 1.23972,-3.62613 0.3663,-1.12322 -0.0749,-2.35283 -0.0749,-2.35283 l -10e-4,-5.2e-4 c -0.47482,-1.37013 -1.87924,-2.19779 -3.38985,-2.19779 h -2.46147 -5.29476 l -0.006,0.006 c -0.0504,-0.004 -0.10088,-0.006 -0.15141,-0.006 z"
           sodipodi:nodetypes="cccccccccccscccccsccsccccc" />
        <path
           id="path24"
           style="color:#000000;fill:#ffffff;stroke-linecap:round;stroke-linejoin:round;-inkscape-stroke:none"
           d="m 258.16615,111.41956 -1.46296,5.1e-4 c -0.29736,0 -0.54105,0.24397 -0.54105,0.54105 0,0.29708 0.24397,0.54261 0.54105,0.54261 h 1.00769 l 0.42582,2.31458 c 2.7e-4,0.002 0.006,0.0375 0.01,0.0822 0.004,0.0458 -0.001,0.10493 0,0.0997 -0.0128,0.0428 -0.0698,0.1288 -0.0641,0.12299 -0.16778,0.16779 -0.47914,0.47292 -0.72089,0.71468 -0.17243,0.17242 -0.37514,0.37727 -0.39067,0.65422 -0.008,0.13847 0.0745,0.29693 0.21497,0.37518 0.14043,0.0783 0.32187,0.10903 0.57619,0.10903 0.13368,0 0.70588,-0.022 1.52549,-0.0543 0.81961,-0.0323 1.87087,-0.0763 2.90784,-0.11937 2.06406,-0.0857 4.05352,-0.17127 4.07262,-0.17208 0,0 0.0881,0.008 0.18913,-0.0176 0.0505,-0.0129 0.10999,-0.0334 0.16588,-0.0837 0.0559,-0.0503 0.0997,-0.13867 0.0997,-0.22686 0,-0.0733 -0.0285,-0.14889 -0.0723,-0.20102 -0.0438,-0.0521 -0.0959,-0.0809 -0.14418,-0.0997 -0.0967,-0.0375 -0.18533,-0.0387 -0.24649,-0.0387 -0.16075,0 -4.27863,-0.014 -7.24607,-0.014 -0.13503,0 -0.22893,0.003 -0.28799,-0.009 0.12345,-0.12316 0.28885,-0.29171 0.3469,-0.34643 0.14319,-0.13034 0.24675,-0.32308 0.20877,-0.53123 v -5.2e-4 -5.2e-4 -5.1e-4 -5.2e-4 l -0.57826,-3.16208 0.002,0.0176 c -0.0233,-0.27686 -0.25716,-0.49609 -0.53899,-0.49609 z"
           sodipodi:nodetypes="ccsscccccscssssccssscssccssssccccc" />
        <path
           id="path25"
           style="color:#000000;fill:#ffffff;-inkscape-stroke:none"
           d="m 258.51187,117.47242 c -0.52085,0 -0.94568,0.42483 -0.94568,0.94567 0,0.52085 0.42483,0.94723 0.94568,0.94723 0.52085,0 0.94723,-0.42638 0.94723,-0.94723 0,-0.52084 -0.42638,-0.94567 -0.94723,-0.94567 z" />
        <path
           id="path26"
           style="color:#000000;fill:#ffffff;-inkscape-stroke:none"
           d="m 265.1094,117.48637 c -0.47012,0 -0.85525,0.38357 -0.85525,0.85369 0,0.47013 0.38513,0.85525 0.85525,0.85525 0.47013,0 0.85369,-0.38512 0.85369,-0.85525 0,-0.47012 -0.38356,-0.85369 -0.85369,-0.85369 z" />
      </g>
    </g>
  </g>
</svg>
