<?xml version="1.0" encoding="UTF-8" standalone="no"?>
<!-- Created with Inkscape (http://www.inkscape.org/) -->

<svg
   width="670"
   height="300"
   viewBox="0 0 177.27084 79.375"
   version="1.1"
   id="svg1228"
   xml:space="preserve"
   inkscape:version="1.2.2 (b0a8486541, 2022-12-01)"
   sodipodi:docname="novo-links-extended.svg"
   xmlns:inkscape="http://www.inkscape.org/namespaces/inkscape"
   xmlns:sodipodi="http://sodipodi.sourceforge.net/DTD/sodipodi-0.dtd"
   xmlns="http://www.w3.org/2000/svg"
   xmlns:svg="http://www.w3.org/2000/svg"><sodipodi:namedview
     id="namedview1230"
     pagecolor="#ffffff"
     bordercolor="#000000"
     borderopacity="0.25"
     inkscape:showpageshadow="2"
     inkscape:pageopacity="0.0"
     inkscape:pagecheckerboard="0"
     inkscape:deskcolor="#d1d1d1"
     inkscape:document-units="mm"
     showgrid="false"
     inkscape:zoom="0.70710678"
     inkscape:cx="385.3732"
     inkscape:cy="210.01071"
     inkscape:window-width="1862"
     inkscape:window-height="1011"
     inkscape:window-x="0"
     inkscape:window-y="0"
     inkscape:window-maximized="1"
     inkscape:current-layer="layer1" /><defs
     id="defs1225"><filter
       inkscape:collect="always"
       style="color-interpolation-filters:sRGB"
       id="filter1097"
       x="-0.11677565"
       y="-0.026431074"
       width="1.2335513"
       height="1.0528621"><feGaussianBlur
         inkscape:collect="always"
         stdDeviation="0.44646665"
         id="feGaussianBlur1099" /></filter></defs><g
     inkscape:label="Camada 1"
     inkscape:groupmode="layer"
     id="layer1"><g
       id="g2297"><path
         id="rect5727"
         style="fill:#c01b1f;stroke-width:12.6027;stroke-linecap:round;stroke-linejoin:round"
         d="M 64.570742,27.286375 H 167.76351 c 4.48792,0 8.10093,3.613015 8.10093,8.100931 v 20.263626 c 0,4.487916 -3.61301,8.100931 -8.10093,8.100931 H 64.570742 c -4.487916,0 -8.100932,-3.613015 -8.100932,-8.100931 V 35.387306 c 0,-4.487916 3.613016,-8.100931 8.100932,-8.100931 z" /><path
         id="path1042"
         style="opacity:0.412033;mix-blend-mode:normal;fill:#800000;fill-opacity:1;stroke-width:1.55425;filter:url(#filter1097)"
         d="m 74.424282,23.211449 c 1.330971,1.591096 2.390834,3.414545 3.094902,5.446179 l 0.0057,0.0031 c 0,0 2.550253,7.107069 0.433049,13.599169 -2.117442,6.492176 -7.165454,20.958928 -7.165454,20.958928 l -0.02894,0.0031 c -0.04261,0.178481 -0.09016,0.354828 -0.14056,0.529684 h 1.000456 c 0.05043,-0.17494 0.09793,-0.351115 0.14056,-0.529684 l 0.02894,-0.0031 c 0,0 5.04803,-14.46672 7.165455,-20.958928 2.117185,-6.492103 -0.433066,-13.599168 -0.433066,-13.599168 l -0.0057,-0.0031 c -0.704048,-2.031635 -1.763918,-3.855084 -3.094886,-5.44618 z" /><path
         id="path15"
         style="fill:#e61c21;fill-opacity:1;stroke-width:1.55425"
         d="m 12.714704,15.952405 c -6.2454731,-2.31e-4 -11.3085411,5.062837 -11.30831,11.30831 0.01156,0.747232 0.094213,1.491575 0.2508501,2.222219 l -0.02312,0.0289 0.134673,0.483782 c 0.060111,0.249117 0.128893,0.496499 0.2057664,0.740759 l 8.8441412,31.792301 c 6.94e-4,6.581636 5.335997,11.91694 11.917633,11.917633 5.003361,-8.67e-4 9.473522,-3.126552 11.191844,-7.825598 0.0024,-0.0044 0.0058,-0.0058 0.01156,-0.01156 1.543827,-2.908185 4.518308,-3.196142 4.518308,-3.196142 0,0 6.531233,-0.74654 8.035467,-0.74654 1.504175,0 2.413363,1.965359 2.413363,1.965359 l 0.02889,-0.0029 c 1.717803,4.568014 6.081554,7.597637 10.96186,7.610525 5.425125,-0.01156 10.135152,-3.740555 11.394894,-9.017366 l 0.0289,-0.0031 c 0,0 5.048097,-14.466652 7.165526,-20.958872 2.117208,-6.492114 -0.432909,-13.599206 -0.432909,-13.599206 l -0.0058,-0.0031 C 75.303823,20.738613 67.186337,15.954774 58.455078,15.954774 H 44.22789 13.624411 l -0.03468,0.03468 c -0.291311,-0.02312 -0.583082,-0.03468 -0.875144,-0.03468 z"
         sodipodi:nodetypes="cccccccccccscccccsccsccccc" /><g
         id="path1547"><path
           style="color:#000000;fill:#ffffff;stroke-width:9.99999;stroke-linecap:round;stroke-linejoin:round;-inkscape-stroke:none"
           d="m 52.948464,22.6398 5.14236,-3.397063 c 0.4495,-0.29298 0.973707,-0.679981 1.509348,-1.121227 0.524206,-0.387002 1.089884,-0.710375 1.64618,-0.980841 1.067728,-0.605275 2.272288,-1.070163 3.597903,-0.790713 1.166269,0.24586 2.059647,0.988355 2.657041,1.833111 0.597394,0.844755 0.808915,1.941018 0.563056,3.107288 -0.100416,0.476339 -0.264818,0.995846 -0.502423,1.333495 -0.527761,0.664219 -0.95625,1.126284 -1.364279,1.482891 -0.204014,0.178303 -0.408028,0.356607 -0.452697,0.568502 -0.03359,0.159345 -0.06718,0.31869 0.02853,0.393753 0.281528,1.553644 0.448381,2.861802 0.400141,4.400813 0.03642,0.616726 0.297663,0.947996 0.828248,1.059848 0.211895,0.04467 0.434867,0.03679 0.680354,-0.07789 0.479537,-0.175107 0.940115,-0.520636 1.400693,-0.866165 0.256564,-0.167226 0.460578,-0.345529 0.588192,-0.430169 2.297999,-1.452481 3.96821,-3.865895 4.537831,-6.567979 0.603214,-2.861428 -0.02702,-5.650026 -1.489246,-7.893423 -1.474637,-2.192899 -3.813346,-3.957132 -6.56798,-4.537832 -2.754633,-0.5806996 -5.638591,-0.02722 -7.904858,1.543492 l -8.77573,5.674595 c -2.320155,1.557581 -3.91566,3.876973 -4.485282,6.579057 -0.167598,0.79503 -0.195184,2.504821 0.0099,4.15213 0.2179,1.595116 0.627041,3.064121 1.527171,3.253875 0.476339,0.100417 1.650863,-0.482345 2.688197,-1.203797 1.037335,-0.721453 2.097182,-1.5497 2.175443,-1.92094 0.05575,-0.264445 -0.08897,-0.627804 -0.200444,-1.148813 -0.164028,-0.532087 -0.147894,-1.137735 -0.0028,-1.82597 0.223346,-1.059474 0.870482,-2.02961 1.769483,-2.615569 z m -4.445895,20.308675 8.77573,-5.674595 c 2.297999,-1.452481 3.927095,-3.931218 4.496359,-6.631607 0.167599,-0.795029 0.18375,-2.450576 -0.02102,-4.099579 -0.163655,-1.583681 -0.615606,-3.118366 -1.515736,-3.308121 -0.371239,-0.07826 -1.661941,0.534895 -2.646725,1.267425 -1.089884,0.710375 -2.138654,1.486073 -2.216915,1.857312 -0.05575,0.264445 0.01426,0.721826 0.189366,1.201363 0.164028,0.532087 0.264072,1.107341 0.118986,1.795576 -0.275896,1.048396 -0.923032,2.018532 -1.844188,2.709591 l -5.183833,3.333435 c -0.460578,0.34553 -0.973706,0.679981 -1.497912,1.066982 l -1.603013,1.044826 c -1.078806,0.657825 -2.315455,1.006178 -3.639375,0.727085 -2.225744,-0.469206 -3.657571,-2.596424 -3.177287,-4.874718 0.111851,-0.530585 0.319063,-0.984411 0.554973,-1.322417 0.475211,-0.675298 0.9037,-1.137362 1.364278,-1.482891 0.204015,-0.178304 0.301234,-0.379121 0.334825,-0.538466 0.02251,-0.106795 -0.0079,-0.222973 -0.01746,-0.446303 -0.334078,-1.564722 -0.44838,-2.861802 -0.40014,-4.400813 -0.05105,-0.286958 -0.05893,-0.509931 -0.195761,-0.650317 -0.114675,-0.245487 -0.368042,-0.353784 -0.632487,-0.409531 -0.211895,-0.04467 -0.382318,-0.02571 -0.627804,0.08897 -0.479537,0.175107 -0.992665,0.509558 -1.453243,0.855087 -0.204015,0.178304 -0.449501,0.29298 -0.576757,0.375924 -2.309077,1.505031 -3.979645,3.92014 -4.548909,6.620529 -0.591778,2.807183 -0.02722,5.638591 1.489246,7.893423 1.463559,2.245449 3.771874,3.893504 6.579057,4.485282 2.754634,0.5807 5.627514,0.07977 7.893424,-1.489247 z"
           id="path2262" /><path
           style="color:#000000;fill:#e61c21;stroke-linecap:round;stroke-linejoin:round;-inkscape-stroke:none"
           d="m 64.109375,4.9296875 c -3.079115,-0.02623 -6.126029,0.8685992 -8.710938,2.6601562 l 0.132813,-0.087891 -8.775391,5.6738279 a 5.0004952,5.0004952 0 0 0 -0.07227,0.04687 c -2.319019,1.556819 -4.140572,3.72759 -5.347657,6.222656 -0.168776,-0.04943 -0.431483,-0.197813 -0.558593,-0.224609 -0.967251,-0.203908 -2.672729,0.03689 -3.583985,0.402344 -1.142868,0.457784 -1.91944,0.978453 -2.515625,1.425781 0.197383,-0.149174 0.246553,-0.174163 -0.320312,0.195313 -3.434771,2.238745 -5.858527,5.733808 -6.710938,9.777343 -0.861793,4.088038 -0.04652,8.303826 2.216797,11.685547 2.167034,3.306712 5.626603,5.755764 9.712891,6.617188 3.940685,0.830729 8.132424,0.143216 11.582031,-2.169922 a 5.0004952,5.0004952 0 0 0 0.05859,-0.0078 L 59.994141,41.472656 59.949219,41.5 c 2.462338,-1.556354 4.278398,-3.774793 5.472656,-6.292969 0.179479,0.05708 0.384545,0.180212 0.548828,0.214844 0.966619,0.203775 2.429178,0.10596 3.617188,-0.384766 1.260624,-0.509628 2.003202,-1.087616 2.43164,-1.414062 0.30092,-0.211389 0.764573,-0.531962 0.416016,-0.300781 l -0.09375,0.06055 c 3.487544,-2.204348 5.907176,-5.719282 6.759765,-9.763671 0.88346,-4.19081 -0.05503,-8.375554 -2.193359,-11.65625 a 5.0004952,5.0004952 0 0 0 -0.03906,-0.05859 C 74.721431,8.7104869 71.379368,6.1481764 67.183594,5.2636719 66.165762,5.0491044 65.135747,4.9384309 64.109375,4.9296875 Z m -5.048828,7.7148435 c -0.05316,0.02585 -0.114255,0.07481 -0.167969,0.101563 -0.02893,0.01615 -0.08312,0.02893 -0.111328,0.04492 z M 54.861328,20.3125 c -0.07359,0.04797 -0.148982,0.109589 -0.222656,0.158203 -0.01053,0.0078 -0.02072,0.01169 -0.03125,0.01953 z m 13.998047,0.822266 c 0.202645,0.158929 0.235922,0.375127 0.398437,0.554687 -0.0053,0.0219 -0.0217,0.04064 -0.02734,0.0625 a 5.0004952,5.0004952 0 0 0 -0.371094,-0.617187 z m -33.283203,3.880859 c -0.01409,0.449562 0.109378,0.897099 0.121094,1.34375 -0.162188,-0.46763 -0.109904,-0.664836 -0.04687,-0.310547 z m 24.683594,0.830078 c 0.01739,0.04763 0.09911,0.133441 0.121093,0.441406 -0.01557,-0.05465 -0.0234,-0.14842 -0.03906,-0.199218 a 5.0004952,5.0004952 0 0 0 -0.08203,-0.242188 z m 6.455078,0.08008 0.01172,0.103516 c -6.78e-4,-0.0066 -0.0032,-0.01491 -0.0039,-0.02148 -0.0037,-0.02965 -0.0041,-0.05217 -0.0078,-0.08203 z m -21.052735,0.402344 c 0.02404,-0.0085 0.173237,0.02244 0.205078,0.01563 -0.06452,0.0365 -0.148462,0.092 -0.193359,0.115234 -0.0019,-0.04105 -0.01025,-0.08935 -0.01172,-0.130859 z m -8.005859,0.230469 c -0.16105,0.120821 -0.25084,0.297929 -0.402344,0.427734 0.05099,-0.04988 0.05817,-0.146897 0.111328,-0.193359 z m 32.279297,0.832031 c -0.317537,0.440021 -0.564901,0.583279 -0.447266,0.480469 0.160456,-0.140235 0.294126,-0.331962 0.447266,-0.480469 z m -23.572266,0.863281 c 0.02771,0.105913 0.01187,0.197485 0.04492,0.304688 l -0.05664,-0.214844 c 4.97e-4,-0.01872 0.01059,-0.06821 0.01172,-0.08984 z m 24.759766,0.820313 c 0.0016,0.01923 0.04002,0.08478 0.04102,0.101562 l 0.0078,0.451172 c 0.0063,-0.201714 -0.04931,-0.355489 -0.04883,-0.552734 z"
           id="path2264" /></g><path
         d="m 52.948464,22.6398 5.14236,-3.397063 c 0.4495,-0.29298 0.973707,-0.679981 1.509348,-1.121227 0.524206,-0.387002 1.089884,-0.710375 1.64618,-0.980841 1.067728,-0.605275 2.272288,-1.070163 3.597903,-0.790713 1.166269,0.24586 2.059647,0.988355 2.657041,1.833111 0.597394,0.844755 0.808915,1.941018 0.563056,3.107288 -0.100416,0.476339 -0.264818,0.995846 -0.502423,1.333495 -0.527761,0.664219 -0.95625,1.126284 -1.364279,1.482891 -0.204014,0.178303 -0.408028,0.356607 -0.452697,0.568502 -0.03359,0.159345 -0.06718,0.31869 0.02853,0.393753 0.281528,1.553644 0.448381,2.861802 0.400141,4.400813 0.03642,0.616726 0.297663,0.947996 0.828248,1.059848 0.211895,0.04467 0.434867,0.03679 0.680354,-0.07789 0.479537,-0.175107 0.940115,-0.520636 1.400693,-0.866165 0.256564,-0.167226 0.460578,-0.345529 0.588192,-0.430169 2.297999,-1.452481 3.96821,-3.865895 4.537831,-6.567979 0.603214,-2.861428 -0.02702,-5.650026 -1.489246,-7.893423 -1.474637,-2.192899 -3.813346,-3.957132 -6.56798,-4.537832 -2.754633,-0.5806996 -5.638591,-0.02722 -7.904858,1.543492 l -8.77573,5.674595 c -2.320155,1.557581 -3.91566,3.876973 -4.485282,6.579057 -0.167598,0.79503 -0.195184,2.504821 0.0099,4.15213 0.2179,1.595116 0.627041,3.064121 1.527171,3.253875 0.476339,0.100417 1.650863,-0.482345 2.688197,-1.203797 1.037335,-0.721453 2.097182,-1.5497 2.175443,-1.92094 0.05575,-0.264445 -0.08897,-0.627804 -0.200444,-1.148813 -0.164028,-0.532087 -0.147894,-1.137735 -0.0028,-1.82597 0.223346,-1.059474 0.870482,-2.02961 1.769483,-2.615569 z m -4.445895,20.308675 8.77573,-5.674595 c 2.297999,-1.452481 3.927095,-3.931218 4.496359,-6.631607 0.167599,-0.795029 0.18375,-2.450576 -0.02102,-4.099579 -0.163655,-1.583681 -0.615606,-3.118366 -1.515736,-3.308121 -0.371239,-0.07826 -1.661941,0.534895 -2.646725,1.267425 -1.089884,0.710375 -2.138654,1.486073 -2.216915,1.857312 -0.05575,0.264445 0.01426,0.721826 0.189366,1.201363 0.164028,0.532087 0.264072,1.107341 0.118986,1.795576 -0.275896,1.048396 -0.923032,2.018532 -1.844188,2.709591 l -5.183833,3.333435 c -0.460578,0.34553 -0.973706,0.679981 -1.497912,1.066982 l -1.603013,1.044826 c -1.078806,0.657825 -2.315455,1.006178 -3.639375,0.727085 -2.225744,-0.469206 -3.657571,-2.596424 -3.177287,-4.874718 0.111851,-0.530585 0.319063,-0.984411 0.554973,-1.322417 0.475211,-0.675298 0.9037,-1.137362 1.364278,-1.482891 0.204015,-0.178304 0.301234,-0.379121 0.334825,-0.538466 0.02251,-0.106795 -0.0079,-0.222973 -0.01746,-0.446303 -0.334078,-1.564722 -0.44838,-2.861802 -0.40014,-4.400813 -0.05105,-0.286958 -0.05893,-0.509931 -0.195761,-0.650317 -0.114675,-0.245487 -0.368042,-0.353784 -0.632487,-0.409531 -0.211895,-0.04467 -0.382318,-0.02571 -0.627804,0.08897 -0.479537,0.175107 -0.992665,0.509558 -1.453243,0.855087 -0.204015,0.178304 -0.449501,0.29298 -0.576757,0.375924 -2.309077,1.505031 -3.979645,3.92014 -4.548909,6.620529 -0.591778,2.807183 -0.02722,5.638591 1.489246,7.893423 1.463559,2.245449 3.771874,3.893504 6.579057,4.485282 2.754634,0.5807 5.627514,0.07977 7.893424,-1.489247 z"
         id="path1925"
         style="fill:#ffffff;stroke:none;stroke-width:2.80634;stroke-linecap:round;stroke-linejoin:round;stroke-dasharray:none;stroke-opacity:1" /><path
         id="path24"
         style="color:#000000;fill:#ffffff;stroke-width:5.77996;stroke-linecap:round;stroke-linejoin:round;-inkscape-stroke:none"
         d="m 20.532267,22.469767 -8.455843,0.0029 c -1.718727,0 -3.1272453,1.410136 -3.1272453,3.127245 0,1.71711 1.4101363,3.136262 3.1272453,3.136262 h 5.824403 l 2.461221,13.37817 c 0.0015,0.01156 0.03468,0.216749 0.0578,0.475113 0.02312,0.264721 -0.0058,0.60649 0,0.576261 -0.07399,0.247382 -0.403441,0.744458 -0.370495,0.710877 -0.969761,0.969819 -2.769409,2.733456 -4.166713,4.130819 -0.996637,0.99658 -2.168293,2.180603 -2.258056,3.781362 -0.04624,0.800351 0.430607,1.716243 1.242518,2.168524 0.81168,0.45257 1.860395,0.630188 3.330353,0.630188 0.772665,0 4.079955,-0.127159 8.817264,-0.313851 4.73731,-0.186692 10.813547,-0.441011 16.807188,-0.689953 11.930175,-0.495342 23.429166,-0.989934 23.539563,-0.994615 0,0 0.509214,0.04623 1.093164,-0.101724 0.291887,-0.07456 0.635736,-0.193051 0.958778,-0.483782 0.3231,-0.290732 0.576261,-0.801506 0.576261,-1.311241 0,-0.423671 -0.164728,-0.860578 -0.417889,-1.161887 -0.253163,-0.301135 -0.554298,-0.467598 -0.833355,-0.576261 -0.558922,-0.216749 -1.071199,-0.223685 -1.424701,-0.223685 -0.929129,0 -24.730293,-0.08091 -41.881965,-0.08091 -0.780467,0 -1.323205,0.01734 -1.664569,-0.05202 0.713535,-0.711859 1.66954,-1.686071 2.005067,-2.002351 0.827631,-0.753358 1.426203,-1.867387 1.20668,-3.070485 v -0.0031 -0.0031 -0.0029 -0.0031 l -3.342316,-18.276683 0.01156,0.101724 c -0.134673,-1.60024 -1.486374,-2.867379 -3.115338,-2.867379 z"
         sodipodi:nodetypes="ccsscccccscssssccssscssccssssccccc" /><path
         id="path25"
         style="color:#000000;fill:#ffffff;stroke-width:5.77996;-inkscape-stroke:none"
         d="m 22.530514,57.455031 c -3.01049,0 -5.465988,2.455498 -5.465988,5.465931 0,3.01049 2.455498,5.474947 5.465988,5.474947 3.010491,0 5.474948,-2.464457 5.474948,-5.474947 0,-3.010433 -2.464457,-5.465931 -5.474948,-5.465931 z" /><path
         id="path26"
         style="color:#000000;fill:#ffffff;stroke-width:5.77996;-inkscape-stroke:none"
         d="m 60.663946,57.535661 c -2.717273,0 -4.943307,2.217018 -4.943307,4.934291 0,2.717331 2.226034,4.943307 4.943307,4.943307 2.717331,0 4.934291,-2.225976 4.934291,-4.943307 0,-2.717273 -2.21696,-4.934291 -4.934291,-4.934291 z" /><path
         style="color:#000000;font-size:35.3797px;-inkscape-font-specification:'Varela Round';fill:#ffffff;stroke:none;stroke-width:1.44719;stroke-linecap:butt;stroke-linejoin:miter;-inkscape-stroke:none"
         d="m 102.63613,39.698141 c -0.54458,0 -1.08624,0.216152 -1.47056,0.600475 -0.39088,0.390883 -0.60047,0.944013 -0.60047,1.500312 v 12.854628 c 0,0.544574 0.21614,1.086227 0.60047,1.470551 0.38432,0.384322 0.92598,0.602226 1.47056,0.602225 0.55629,10e-7 1.10943,-0.211339 1.50031,-0.602225 0.38433,-0.384323 0.60179,-0.925975 0.60179,-1.470551 V 41.798928 c 0,-0.5563 -0.21091,-1.10943 -0.60179,-1.500312 -0.39088,-0.390887 -0.94402,-0.600475 -1.50031,-0.600475 z"
         id="path1040" /><path
         style="color:#000000;font-size:35.3797px;-inkscape-font-specification:'Varela Round';fill:#ffffff;stroke:none;stroke-width:1.44719;stroke-linecap:butt;stroke-linejoin:miter;-inkscape-stroke:none"
         d="m 156.92605,39.547584 c -2.04958,0 -3.71061,0.478566 -4.86464,1.538389 -1.11256,1.021744 -1.70251,2.386665 -1.70251,3.918844 0,1.011481 0.2439,1.920181 0.76767,2.643489 a 0.72366516,0.72366516 0 0 0 0.0166,0.02144 c 0.5074,0.645782 1.15805,1.165278 1.92353,1.548018 a 0.72366516,0.72366516 0 0 0 0.0219,0.01181 c 0.73738,0.337087 1.50579,0.610165 2.30387,0.820182 a 0.72366516,0.72366516 0 0 0 0.0184,0.0053 c 0.75354,0.178473 1.46647,0.356398 2.13887,0.534388 a 0.72366516,0.72366516 0 0 0 0.0232,0.0066 c 0.65319,0.149301 1.15087,0.332654 1.48017,0.520819 a 0.72366516,0.72366516 0 0 0 0.0135,0.0066 c 0.27628,0.150698 0.28099,0.185553 0.28099,0.383831 0,0.486031 -0.12901,0.732708 -0.49938,0.994372 -0.31307,0.215842 -1.02042,0.410091 -2.10254,0.410091 -0.82698,0 -1.53144,-0.086 -2.11085,-0.243341 l -0.007,-0.0014 c -0.60687,-0.171002 -1.16217,-0.369125 -1.664,-0.59216 -0.26159,-0.116262 -0.54502,-0.182068 -0.832,-0.182068 -0.519,0 -1.04115,0.245349 -1.37996,0.638552 -0.31465,0.349099 -0.5125,0.812695 -0.5125,1.283668 0,0.614755 0.3133,1.225137 0.81536,1.57953 a 0.72366516,0.72366516 0 0 0 0.0661,0.04289 c 0.81151,0.448463 1.68549,0.799902 2.6168,1.053895 a 0.72366516,0.72366516 0 0 0 0.005,0 c 0.96984,0.258624 2.03138,0.383831 3.18269,0.383831 2.02575,-1e-6 3.65937,-0.453361 4.7968,-1.472302 a 0.72366516,0.72366516 0 0 0 0.002,0 c 1.10251,-0.990009 1.70733,-2.273279 1.70733,-3.685568 0,-1.08338 -0.24646,-2.031004 -0.80049,-2.765598 -0.49219,-0.677549 -1.15836,-1.207186 -1.95198,-1.571652 -0.72813,-0.362508 -1.50662,-0.641455 -2.33232,-0.831998 -0.7516,-0.178003 -1.47215,-0.346068 -2.16556,-0.504627 -0.62242,-0.164761 -1.10831,-0.37034 -1.46398,-0.595223 -0.24202,-0.162538 -0.30417,-0.27046 -0.30417,-0.592159 0,-0.358083 0.11693,-0.589877 0.57727,-0.896773 0.42948,-0.286314 1.13446,-0.47793 2.14543,-0.47793 0.62268,0 1.18943,0.0475 1.70033,0.13874 a 0.72366516,0.72366516 0 0 0 0.003,0.0018 c 0.54856,0.09458 1.04254,0.215924 1.48192,0.362386 0.06,0.01998 0.1204,0.03954 0.18032,0.05952 a 0.72366516,0.72366516 0 0 0 0.22846,0.03808 h 0.21009 c 0.5043,0 1.01293,-0.220036 1.35807,-0.589095 0.34586,-0.35254 0.56415,-0.838692 0.56415,-1.333125 0,-0.380037 -0.14952,-0.738572 -0.36239,-1.043828 -0.22942,-0.375702 -0.60649,-0.66591 -1.0272,-0.787358 -0.64796,-0.227574 -1.34732,-0.414095 -2.10254,-0.557146 -0.76966,-0.149656 -1.58458,-0.223647 -2.44479,-0.223647 z"
         id="path1038" /><path
         style="color:#000000;font-size:35.3797px;-inkscape-font-specification:'Varela Round';fill:#ffffff;stroke:none;stroke-width:1.44719;stroke-linecap:butt;stroke-linejoin:miter;-inkscape-stroke:none"
         d="m 120.20054,39.547584 c -1.4428,0 -2.7038,0.315631 -3.72365,0.987808 -0.46531,0.303172 -0.81857,0.687184 -1.2259,1.032012 -0.0593,-0.473054 -0.19933,-0.949225 -0.54577,-1.275353 -0.38356,-0.376983 -0.91668,-0.59391 -1.45567,-0.59391 -0.54457,0 -1.08622,0.216148 -1.47055,0.600475 -0.39089,0.390882 -0.60222,0.944012 -0.60222,1.500312 v 12.854628 c 0,0.544576 0.2179,1.086228 0.60222,1.470551 0.38433,0.384326 0.92598,0.602225 1.47055,0.602225 0.53973,0 1.07376,-0.219456 1.45742,-0.597411 0.40108,-0.378916 0.64337,-0.923682 0.64337,-1.475365 v -8.68938 c 0.52691,-0.638014 1.11206,-1.223248 1.79968,-1.72177 0.67376,-0.48848 1.44265,-0.731337 2.39183,-0.731337 1.04367,0 1.60665,0.26207 1.9406,0.702888 a 0.72366516,0.72366516 0 0 0 0.0149,0.02013 c 0.38677,0.476043 0.6171,1.181148 0.6171,2.209765 v 8.2097 c 0,0.544576 0.21615,1.086228 0.60048,1.470551 0.38432,0.384326 0.92597,0.602227 1.47055,0.602226 0.54025,10e-7 1.07499,-0.218769 1.45873,-0.597412 0.40107,-0.378916 0.64336,-0.923681 0.64336,-1.475365 v -8.509061 c 0,-1.171937 -0.23079,-2.264605 -0.69938,-3.247029 -0.47033,-1.00535 -1.17516,-1.828084 -2.08109,-2.41853 -0.93032,-0.62656 -2.05561,-0.93135 -3.30655,-0.93135 z"
         id="path1036" /><path
         style="color:#000000;font-size:35.3797px;-inkscape-font-specification:'Varela Round';fill:#ffffff;stroke:none;stroke-width:1.44719;stroke-linecap:butt;stroke-linejoin:miter;-inkscape-stroke:none"
         d="m 102.5766,33.554652 c -0.59177,0 -1.17232,0.242721 -1.59135,0.661748 -0.41902,0.419028 -0.65999,0.997814 -0.65999,1.589595 v 0.120796 c 0,0.59178 0.24097,1.170567 0.65999,1.589595 0.41903,0.419026 0.99958,0.661748 1.59135,0.661748 h 0.18032 c 0.59178,0 1.17057,-0.242718 1.58959,-0.661748 0.41903,-0.419028 0.66132,-0.997813 0.66132,-1.589595 v -0.120796 c 0,-0.591783 -0.24229,-1.170568 -0.66132,-1.589595 -0.41902,-0.419031 -0.99781,-0.661747 -1.58959,-0.661748 z"
         id="path1034" /><path
         style="color:#000000;font-size:35.3797px;-inkscape-font-specification:'Varela Round';fill:#ffffff;stroke:none;stroke-width:1.44719;stroke-linecap:butt;stroke-linejoin:miter;-inkscape-stroke:none"
         d="m 133.28292,33.104734 c -0.55295,0 -1.09809,0.244125 -1.47711,0.646867 -0.37699,0.383559 -0.59391,0.916677 -0.59391,1.45567 v 19.446285 c 0,0.544576 0.21615,1.086228 0.60047,1.470551 0.38432,0.38432 0.92598,0.602225 1.47055,0.602225 0.54026,0 1.07544,-0.218769 1.45918,-0.597411 0.40107,-0.378915 0.64337,-0.923677 0.64337,-1.475365 v -3.545078 l 1.77472,-1.611042 4.67994,6.363635 a 0.72366516,0.72366516 0 0 0 0.0297,0.03808 c 0.42009,0.498855 1.02277,0.827185 1.66049,0.827185 0.54425,0 1.08504,-0.185866 1.48063,-0.551019 0.4069,-0.375611 0.62192,-0.935699 0.62192,-1.491996 0,-0.451946 -0.17363,-0.889906 -0.44992,-1.249094 l -5.0187,-6.655992 3.8195,-3.42122 a 0.72366516,0.72366516 0 0 0 0.0297,-0.02801 c 0.25849,-0.258498 0.46011,-0.495478 0.58384,-0.825434 a 0.72366516,0.72366516 0 0 0 0.0101,-0.02626 c 0.0752,-0.225548 0.12736,-0.437922 0.12736,-0.678379 0,-0.439768 -0.14334,-0.87151 -0.38208,-1.247342 -0.33977,-0.556436 -1.00611,-0.793923 -1.66094,-0.793923 -0.28698,0 -0.5751,0.06676 -0.832,0.195198 a 0.72366516,0.72366516 0 0 0 -0.0363,0.02013 c -0.17527,0.100156 -0.33953,0.214529 -0.4928,0.342253 a 0.72366516,0.72366516 0 0 0 -0.0285,0.0232 l -5.91678,5.470362 V 35.207271 c 0,-0.547361 -0.24317,-1.083685 -0.63855,-1.462235 -0.37856,-0.395393 -0.91662,-0.640302 -1.46399,-0.640302 z"
         id="path1032" /><path
         style="color:#000000;font-size:35.3797px;-inkscape-font-specification:'Varela Round';fill:#ffffff;stroke:none;stroke-width:1.44719;stroke-linecap:butt;stroke-linejoin:miter;-inkscape-stroke:none"
         d="m 91.443431,33.104734 c -0.544574,0 -1.086226,0.217902 -1.47055,0.602225 -0.390883,0.390883 -0.602225,0.944013 -0.602226,1.500312 v 19.446285 c 0,0.544574 0.217903,1.086227 0.602226,1.470551 0.384324,0.384323 0.925976,0.602225 1.47055,0.602225 0.556301,0 1.109431,-0.211343 1.500312,-0.602225 0.384324,-0.384324 0.600476,-0.925977 0.600476,-1.470551 V 35.207271 c 0,-0.556299 -0.209592,-1.109429 -0.600476,-1.500312 -0.390881,-0.390883 -0.944011,-0.602225 -1.500312,-0.602225 z"
         id="path976" /></g></g></svg>
