<?xml version="1.0" encoding="UTF-8" standalone="no"?>
<!-- Uploaded to: SVG Repo, www.svgrepo.com, Generator: SVG Repo Mixer Tools -->

<svg
   fill="#000000"
   width="300"
   height="300"
   viewBox="0 0 192 192"
   id="_11_Search"
   data-name="11 Search"
   version="1.1"
   sodipodi:docname="search-icon.svg"
   inkscape:version="1.2.2 (b0a8486541, 2022-12-01)"
   xmlns:inkscape="http://www.inkscape.org/namespaces/inkscape"
   xmlns:sodipodi="http://sodipodi.sourceforge.net/DTD/sodipodi-0.dtd"
   xmlns="http://www.w3.org/2000/svg"
   xmlns:svg="http://www.w3.org/2000/svg">
  <defs
     id="defs531" />
  <sodipodi:namedview
     id="namedview529"
     pagecolor="#ffffff"
     bordercolor="#000000"
     borderopacity="0.25"
     inkscape:showpageshadow="2"
     inkscape:pageopacity="0.0"
     inkscape:pagecheckerboard="0"
     inkscape:deskcolor="#d1d1d1"
     showgrid="false"
     inkscape:zoom="0.98125"
     inkscape:cx="224.71338"
     inkscape:cy="-7.6433121"
     inkscape:window-width="1600"
     inkscape:window-height="863"
     inkscape:window-x="0"
     inkscape:window-y="0"
     inkscape:window-maximized="1"
     inkscape:current-layer="_11_Search" />
  <path
     id="path1210"
     style="color:#000000;fill:#808080;fill-rule:evenodd;stroke-width:12.8197;stroke-linecap:round;stroke-linejoin:round;-inkscape-stroke:none"
     d="m 85.13962,1.5071249 c -46.109815,0 -83.6324886,37.5164341 -83.6324886,83.6315481 0,46.115107 37.5226406,83.632947 83.6324886,83.632947 a 6.4104712,6.4104712 0 0 0 0.0081,0 c 14.221829,-0.0176 28.16089,-3.7102 40.51308,-10.64182 l 25.67684,25.67777 c 8.91192,8.91338 23.55703,8.91376 32.46959,0.001 8.91414,-8.9101 8.9141,-23.55492 3.6e-4,-32.46535 l -3.8e-4,-0.001 -25.67872,-25.67778 c 6.92882,-12.35463 10.62134,-26.293469 10.64319,-40.515903 a 6.4104712,6.4104712 0 0 0 0,-3.76e-4 6.4104712,6.4104712 0 0 0 0,-0.0015 6.4104712,6.4104712 0 0 0 0,-0.0022 6.4104712,6.4104712 0 0 0 0,-0.0015 6.4104712,6.4104712 0 0 0 0,-0.0015 6.4104712,6.4104712 0 0 0 0,-0.0015 6.4104712,6.4104712 0 0 0 0,-0.0018 C 168.77161,39.023766 131.25444,1.5071249 85.13962,1.5071249 Z m 0.0042,34.8832451 c 26.99717,0.0018 48.74441,21.750545 48.74407,48.748303 7.6e-4,19.735607 -11.85944,37.486807 -30.09209,45.039237 -18.232626,7.5524 -39.16903,3.38658 -53.124588,-10.56853 C 36.715706,105.65426 32.549489,84.717657 40.10132,66.484816 47.653173,48.251925 65.404012,36.391779 85.13962,36.391779 a 6.4104712,6.4104712 0 0 0 0.0042,-0.0014 z" />
</svg>
